<?xml version="1.0" standalone="no"?><!DOCTYPE svg PUBLIC "-//W3C//DTD SVG 1.1//EN" "http://www.w3.org/Graphics/SVG/1.1/DTD/svg11.dtd"><svg t="1658425434741" class="icon" viewBox="0 0 1024 1024" version="1.1" xmlns="http://www.w3.org/2000/svg" p-id="1913" xmlns:xlink="http://www.w3.org/1999/xlink" width="200" height="200"><defs><style type="text/css">@font-face { font-family: feedback-iconfont; src: url("//at.alicdn.com/t/font_1031158_u69w8yhxdu.woff2?t=1630033759944") format("woff2"), url("//at.alicdn.com/t/font_1031158_u69w8yhxdu.woff?t=1630033759944") format("woff"), url("//at.alicdn.com/t/font_1031158_u69w8yhxdu.ttf?t=1630033759944") format("truetype"); }
</style></defs><path d="M686.452053 386.73408c-113.896107 10.448213-206.414507 113.022293-173.796693 192.68608 1.051307 2.58048-31.525547 8.963413-51.2 9.970347-51.725653 2.624853-82.899627-14.25408-88.80128-48.09728-10.625707-61.300053 46.34624-110.35648 118.797653-102.311253 11.322027 1.26976 28.289707 5.597867 34.628267 8.789333 1.573547 0.82944 2.973013 0.129707 2.973013-1.44384 24.61696-49.75616 23.698773-46.609067 18.66752-48.13824-30.999893-9.22624-66.809173-11.414187-105.413973-6.382933-67.03104 8.700587-114.3808 38.823253-135.236267 86.091093-1.13664 2.62144-2.143573 4.676267-2.23232 4.590933-0.085333-0.044373 0.3072-2.75456 0.873813-5.94944 12.680533-74.810027-77.738667-106.202453-215.422293-74.72128-4.328107 0.96256-8.3968 1.880747-9.05216 2.054827-0.65536 0.129707-1.266347 0.566613-1.399467 0.96256-0.34816 1.181013-11.19232 47.571627-11.19232 47.83104 0 0.088747 1.836373-0.392533 4.06528-1.092267 12.854613-4.1984 30.60736-8.830293 42.93632-11.236693 82.59584-16.175787 128.853333 0.48128 116.742827 42.062507l-0.699733 2.362027-30.037333 0.262827c-81.762987 0.65536-122.7776 9.048747-151.678293 30.95552-35.065173 26.627413-35.894613 81.452373-1.61792 103.840427 23.524693 15.305387 46.609067 17.408 128.723627 11.762347 18.582187-1.266347 29.248853-1.96608 38.25664-2.48832 10.144427-0.6144 44.161707-0.74752 50.152107-0.218453l3.802453 0.3072 0.436907-2.491733c2.973013-15.83104 6.997333-32.617813 16.223573-67.24608 5.113173-19.367253 8.26368-31.392427 8.741547-33.447253 1.051307-4.594347 1.358507-3.846827 1.09568 2.624853-2.27328 52.20352 38.56384 92.299947 104.717653 102.92224 31.30368 5.02784 77.60896 3.324587 103.273813-3.846827 5.553493-1.573547 6.120107-1.88416 6.731093-4.1984 1.532587-5.812907 4.287147-16.22016 4.768427-18.14528 0.34816-1.21856 1.266347-4.672853 2.054827-7.738027 1.662293-6.6048 1.266347-6.427307 4.37248-1.96608 25.361067 36.420267 101.700267 52.81792 158.194347 33.972907 35.280213-11.762347 69.737813-39.8336 62.95552-51.288747-2.577067-4.37248-5.942613-3.539627-12.895573 3.147093-62.958933 60.73344-160.4608 42.499413-162.740907-30.34112-1.133227-37.778773 1.314133-39.441067 61.52192-41.3184 34.19136-1.051307 43.28448-1.44384 55.74656-2.450773 54.828373-4.328107 88.582827-17.138347 104.67328-39.656107 1.31072-1.836373 2.44736-3.280213 2.536107-3.23584-42.8544 158.32064-44.468907 164.27008-44.468907 164.44416 0 0.129707 18.496853 0.262827 41.099947 0.262827l41.099947 0 0.44032-1.09568c19.104427-69.474987 26.146133-95.228587 29.51168-107.33568 14.912853-54.309547 59.774293-80.233813 120.459947-69.696853l7.74144 1.358507c16.04608-51.725653 17.445547-56.623787 17.664-57.32352 1.184427-3.75808-36.375893-6.208853-51.636907-3.40992-30.2592 5.553493-59.726507 23.82848-73.588053 45.646507-2.7136 4.242773-2.973013 3.672747-1.355093-2.75456 2.798933-11.3664 8.83712-36.15744 9.137493-37.471573l0.3072-1.396053-78.91968 0.218453-0.82944 3.713707c-5.423787 23.698773-6.95296 30.12608-7.60832 31.699627l-0.566613 1.314133-0.044373-1.13664c-0.3072-20.596053-30.60736-39.396693-71.707307-44.598613C722.4832 386.164053 693.889707 386.034347 686.452053 386.73408L686.452053 386.73408zM712.25344 400.50688c39.918933 2.973013 56.05376 25.96864 37.690027 53.777067-15.39072 23.261867-48.797013 33.536-127.102293 39.133867-21.599573 1.529173-36.072107 3.23584-42.58816 5.02784-3.979947 1.13664-3.85024 1.355093-1.836373-3.321173C603.818667 436.49024 660.220587 396.65664 712.25344 400.50688zM222.552747 521.40032c0 0.354987-3.36896 14.209707-5.290667 21.8624-8.526507 33.580373-19.981653 44.63616-51.770027 50.015573-44.991147 7.60832-75.072853-4.369067-73.980587-29.467307 1.051307-25.05728 29.952-39.441067 84.56192-42.151253C183.855787 521.270613 222.552747 521.05216 222.552747 521.40032z" p-id="1914"></path></svg>