<?xml version="1.0" standalone="no"?><!DOCTYPE svg PUBLIC "-//W3C//DTD SVG 1.1//EN" "http://www.w3.org/Graphics/SVG/1.1/DTD/svg11.dtd"><svg t="1658425465475" class="icon" viewBox="0 0 1024 1024" version="1.1" xmlns="http://www.w3.org/2000/svg" p-id="2326" xmlns:xlink="http://www.w3.org/1999/xlink" width="200" height="200"><defs><style type="text/css">@font-face { font-family: feedback-iconfont; src: url("//at.alicdn.com/t/font_1031158_u69w8yhxdu.woff2?t=1630033759944") format("woff2"), url("//at.alicdn.com/t/font_1031158_u69w8yhxdu.woff?t=1630033759944") format("woff"), url("//at.alicdn.com/t/font_1031158_u69w8yhxdu.ttf?t=1630033759944") format("truetype"); }
</style></defs><path d="M766.421333 622.933333V397.824h52.138667v179.370667h91.306667v45.653333h-143.445334z m-417.450666-140.288l127.146666-97.792c11.989333 9.728 23.893333 19.541333 35.882667 29.312l-120.618667 91.306667 26.069334 22.826667 120.618666-94.549334c11.989333 9.728 23.893333 19.541333 35.882667 29.354667a12622.08 12622.08 0 0 1-120.618667 94.549333l26.026667 22.869334 120.746667-97.92-0.042667-84.736h52.181333v179.370666h94.549334v45.653334h-143.445334v-84.778667c-42.453333 32.554667-84.778667 65.237333-127.189333 97.792l-127.189333-97.792c-6.144 31.104-27.861333 58.026667-55.978667 72.277333a113.066667 113.066667 0 0 1-39.04 11.776c-7.808 0.938667-15.658667 0.725333-23.509333 0.725334H150.016V397.866667H242.773333a108.544 108.544 0 0 1 66.688 23.765333c19.370667 15.36 33.194667 37.205333 39.552 61.013333m-150.016-39.125333v136.96l40.661334-0.042667a58.752 58.752 0 0 0 44.202666-22.314666 74.24 74.24 0 0 0 7.765334-80.597334 63.744 63.744 0 0 0-41.642667-32.682666c-7.082667-1.706667-14.421333-1.28-21.632-1.365334h-29.354667zM504.32 0h14.378667a509.44 509.44 0 0 1 230.613333 58.581333 516.309333 516.309333 0 0 1 176.042667 151.765334A509.013333 509.013333 0 0 1 1024 504.32v15.36a510.421333 510.421333 0 0 1-138.069333 342.741333A510.592 510.592 0 0 1 519.765333 1024h-15.402666a511.701333 511.701333 0 0 1-176.853334-34.389333 513.706667 513.706667 0 0 1-182.357333-121.002667A514.432 514.432 0 0 1 24.576 668.586667 512.256 512.256 0 0 1 0 519.722667v-15.402667a508.757333 508.757333 0 0 1 84.992-272.896 521.002667 521.002667 0 0 1 200.96-178.005333A506.666667 506.666667 0 0 1 504.32 0m-6.528 52.48a457.557333 457.557333 0 0 0-274.346667 101.333333 459.946667 459.946667 0 0 0-141.610666 195.114667 463.274667 463.274667 0 0 0 8.234666 346.453333 460.288 460.288 0 0 0 151.296 188.629334 456.448 456.448 0 0 0 204.202667 83.029333c62.122667 8.917333 126.08 5.290667 186.709333-11.093333a458.922667 458.922667 0 0 0 216.533334-130.645334 458.325333 458.325333 0 0 0 114.602666-225.28 465.706667 465.706667 0 0 0-5.205333-199.765333 459.52 459.52 0 0 0-302.848-325.376 459.946667 459.946667 0 0 0-157.568-22.4z" p-id="2327"></path></svg>